# xmcd
#
# Track frame offsets:
#	150
#	12276
#	26560
#	54608
#	68070
#	87051
#	105442
#	123886
#	136131
#	150539
#	167571
#	180842
#	204196
#
# Disc length: 2896 seconds
# Revision: 0
# Processed by: cddbd v1.5.2PL0 Copyright (c) Steve Scherf et al.
# Submitted via: dBpowerAMP V12.0
#
DISCID=900b4e0d
DTITLE=Rob Breese and Doug Rowe - Killin Time
DYEAR=2005
DGENRE=Country
TTITLE0=I'm Gonna Hurt Her on The Radio
TTITLE1=Thats How a Cowgirls Says Goodbye
TTITLE2=The Blacksoil Plains of The Outback
TTITLE3=Gone Gone Gone
TTITLE4=Ol Country
TTITLE5=These Tears
TTITLE6=In My Next Life
TTITLE7=Second Chance to Make a First Impression
TTITLE8=Killin Time
TTITLE9=What She's Doin Now
TTITLE10=Brother Jukebox
TTITLE11=The Turnback Boys
TTITLE12=I Would Like to See You Again
EXTD=
EXTT0=
EXTT1=
EXTT2=
EXTT3=
EXTT4=
EXTT5=
EXTT6=
EXTT7=
EXTT8=
EXTT9=
EXTT10=
EXTT11=
EXTT12=
PLAYORDER=
